<?xml version="1.0" encoding="UTF-8"?>
<svg xmlns="http://www.w3.org/2000/svg" width="240" height="60" viewBox="0 0 240 60" fill="none">
  <path fill-rule="evenodd" clip-rule="evenodd" d="M130.686 18.0462C131.232 14.6737 136.43 14.8269 136.747 18.1249L136.757 18.1767V55.3293H130.666V41.2868C128.185 42.8357 125.414 43.5708 122.381 43.5708C118.375 43.5708 114.918 42.2395 112.082 39.5478C109.218 36.8269 107.827 33.4853 107.827 29.6418C107.827 25.8069 109.203 22.4564 112.053 19.7313C114.888 17.0219 118.373 15.684 122.381 15.684C125.422 15.684 128.199 16.4908 130.686 18.0462ZM116.689 35.7443C118.287 37.1502 120.166 37.8198 122.381 37.8198C124.736 37.8198 126.703 37.0448 128.363 35.4531C129.478 34.3848 130.256 33.1493 130.61 31.6925C130.796 31.0232 130.895 30.3202 130.895 29.5949C130.895 25.0857 127.059 21.43 122.326 21.43C117.593 21.43 113.757 25.0857 113.757 29.5949C113.757 32.0476 114.892 34.2476 116.689 35.7443Z" fill="#08AFF7"></path>
  <path fill-rule="evenodd" clip-rule="evenodd" d="M140.46 17.472C140.307 15.049 146.614 14.6004 146.675 17.4512V32.6126C146.675 34.0235 147.227 35.1592 148.278 36.141C149.398 37.1863 150.707 37.6266 152.264 37.62C153.723 37.6138 154.929 37.113 155.988 36.1641C157.073 35.1911 157.57 34.0273 157.57 32.6126L157.486 17.1273C157.503 14.998 163.532 14.8645 163.7 17.0919L163.787 17.4113V32.8341C163.787 35.8077 162.67 38.403 160.456 40.5025C158.216 42.6278 155.398 43.5427 152.27 43.5427C149.068 43.5427 146.081 42.6926 143.771 40.5025C141.561 38.4068 140.46 35.7998 140.46 32.8341V17.4719V17.472Z" fill="#08AFF7"></path>
  <path fill-rule="evenodd" clip-rule="evenodd" d="M210.656 36.7845C211.844 37.4685 213.183 37.7433 214.597 37.7482C216.949 37.7556 218.94 36.9571 220.601 35.3751C220.896 35.0941 221.189 34.8006 221.439 34.4817L221.801 34.0213C222.579 32.9008 223.909 32.3875 225.291 32.5705C226.44 32.7225 227.667 33.3925 228.028 34.502C228.231 35.1288 228.103 35.769 227.754 36.3251L227.737 36.3519L227.025 37.2546C226.407 38.0378 225.766 38.8296 225.031 39.5173C222.144 42.2155 218.635 43.5807 214.592 43.5807C210.563 43.5807 207.086 42.1999 204.231 39.4939C201.355 36.7662 199.945 33.4186 199.945 29.56C199.945 25.7057 201.348 22.3445 204.223 19.6186C207.081 16.909 210.574 15.5641 214.6 15.5641C217.973 15.5641 221.114 16.4515 223.749 18.4977C224.217 18.8616 224.656 19.2565 225.07 19.6751C225.321 19.9288 225.581 20.1744 225.833 20.4264L225.854 20.4468L225.873 20.4692C226.465 21.1852 226.249 21.9543 225.621 22.564L223.892 24.2115L210.656 36.7845ZM206.595 32.4696L217.702 21.8925C216.714 21.5237 215.628 21.3969 214.574 21.3969C212.221 21.3969 210.256 22.1659 208.591 23.7528C206.913 25.3518 206.067 27.2382 206.067 29.5031C206.067 30.5036 206.202 31.5348 206.595 32.4696Z" fill="#08AFF7"></path>
  <path d="M141.913 47.9682V53.21C141.913 53.6829 142.03 54.018 142.265 54.215C142.5 54.4121 142.823 54.5109 143.238 54.5109C143.357 54.5109 143.481 54.5019 143.609 54.4842C143.738 54.4669 143.844 54.4406 143.926 54.4054L143.995 55.0361C143.885 55.0799 143.74 55.1172 143.561 55.1478C143.382 55.1783 143.2 55.1937 143.016 55.1937C142.382 55.1937 141.899 55.0342 141.569 54.7142C141.238 54.3948 141.072 53.9019 141.072 53.2364V47.9682H139.804V47.3246H141.087L141.252 45.2883L141.913 45.2095V47.3246H144.05V47.9682H141.913Z" fill="white"></path>
  <path d="M149.146 55.2346C148.493 55.2346 147.939 55.1513 147.484 54.9846C147.03 54.8183 146.655 54.5601 146.361 54.2098C146.067 53.8591 145.853 53.4147 145.719 52.8763C145.586 52.3376 145.52 51.6915 145.52 50.9384C145.52 49.7126 145.789 48.7817 146.326 48.1466C146.864 47.5119 147.675 47.1943 148.76 47.1943C149.22 47.1943 149.64 47.2621 150.021 47.398C150.403 47.5339 150.731 47.7461 151.008 48.0354C151.283 48.3242 151.497 48.6942 151.648 49.1454C151.8 49.5961 151.876 50.1369 151.876 50.7675C151.876 50.8291 151.874 50.8968 151.869 50.9715C151.865 51.046 151.858 51.1095 151.848 51.1619H146.375C146.384 51.7835 146.445 52.3068 146.561 52.7317C146.676 53.1563 146.851 53.4979 147.085 53.7562C147.319 54.015 147.613 54.2007 147.968 54.3147C148.321 54.4287 148.742 54.4854 149.229 54.4854C149.661 54.4854 150.056 54.4373 150.415 54.3411C150.773 54.2448 151.127 54.1088 151.476 53.9335L151.586 54.6303C151.237 54.8226 150.862 54.9718 150.463 55.0766C150.063 55.1818 149.624 55.2346 149.146 55.2346ZM151.104 50.5968C151.094 50.1067 151.031 49.6906 150.91 49.349C150.791 49.0074 150.628 48.7293 150.421 48.515C150.214 48.3001 149.971 48.1448 149.69 48.0482C149.41 47.9521 149.1 47.9038 148.76 47.9038C147.951 47.9038 147.36 48.1271 146.989 48.574C146.616 49.0202 146.407 49.6947 146.361 50.5968H151.104Z" fill="white"></path>
  <path d="M159.218 48.3626C158.962 48.2399 158.678 48.1413 158.371 48.0667C158.063 47.9922 157.747 47.955 157.426 47.955C156.949 47.955 156.541 48.0144 156.206 48.1327C155.871 48.2509 155.597 48.4391 155.386 48.6973C155.175 48.9556 155.02 49.2844 154.924 49.6826C154.827 50.0814 154.779 50.5561 154.779 51.1083C154.779 51.7387 154.834 52.2686 154.944 52.6976C155.055 53.1267 155.221 53.4774 155.441 53.7488C155.662 54.0201 155.935 54.2149 156.261 54.3332C156.587 54.4515 156.966 54.5108 157.399 54.5108C157.747 54.5108 158.083 54.4647 158.405 54.3727C158.727 54.2809 159.017 54.1469 159.274 53.9718L159.357 54.6685C159.117 54.8435 158.812 54.9835 158.44 55.0885C158.067 55.1937 157.67 55.2462 157.247 55.2462C156.126 55.2462 155.289 54.9222 154.738 54.274C154.186 53.6261 153.91 52.5707 153.91 51.1083C153.91 49.7855 154.177 48.8023 154.71 48.1586C155.243 47.5148 156.093 47.1931 157.26 47.1931C157.647 47.1931 158.015 47.2346 158.363 47.318C158.713 47.4009 159.021 47.5041 159.287 47.6265L159.218 48.3626Z" fill="white"></path>
  <path d="M166.837 55.075V49.8332C166.837 49.2289 166.664 48.7648 166.32 48.441C165.975 48.1169 165.439 47.9547 164.713 47.9547C164.208 47.9547 163.758 48.0578 163.362 48.2637C162.967 48.4695 162.678 48.721 162.494 49.0187V55.075H161.652V44.6313L162.494 44.5656V47.1139L162.48 48.1649L162.507 48.178C162.793 47.8542 163.144 47.6066 163.562 47.4359C163.98 47.265 164.438 47.1799 164.934 47.1799C165.835 47.1799 166.517 47.4051 166.981 47.856C167.446 48.3076 167.678 48.9665 167.678 49.8332V55.0749H166.837V55.075Z" fill="white"></path>
  <path d="M175.833 55.0754V49.8471C175.833 49.1813 175.648 48.6997 175.275 48.4019C174.903 48.1044 174.371 47.9551 173.683 47.9551C173.48 47.9551 173.273 47.9773 173.062 48.0209C172.85 48.0648 172.644 48.1327 172.441 48.2246C172.239 48.3164 172.053 48.4282 171.883 48.5594C171.713 48.6909 171.573 48.8399 171.462 49.0062V55.0754H170.635V47.3376L171.229 47.2851L171.379 48.2179H171.421C171.697 47.8941 172.053 47.6421 172.49 47.4626C172.926 47.2832 173.392 47.1931 173.889 47.1931C174.753 47.1931 175.431 47.4078 175.923 47.8368C176.414 48.266 176.66 48.9317 176.66 49.8336V55.0754H175.833Z" fill="white"></path>
  <path d="M185.92 51.2132C185.92 51.9401 185.856 52.5598 185.727 53.0719C185.598 53.5843 185.396 54.0003 185.121 54.3202C184.844 54.6399 184.493 54.8742 184.065 55.0232C183.638 55.1717 183.126 55.2462 182.528 55.2462C181.931 55.2462 181.418 55.1717 180.991 55.0232C180.563 54.8742 180.207 54.6399 179.923 54.3202C179.637 54.0003 179.429 53.5843 179.295 53.0719C179.162 52.5598 179.095 51.9401 179.095 51.2132C179.095 50.4951 179.164 49.8821 179.302 49.3742C179.439 48.8663 179.649 48.4502 179.929 48.126C180.21 47.8018 180.566 47.5656 180.998 47.4165C181.43 47.2678 181.94 47.1931 182.528 47.1931C183.126 47.1931 183.638 47.2678 184.065 47.4165C184.493 47.5656 184.844 47.8018 185.121 48.126C185.396 48.4502 185.598 48.8663 185.727 49.3742C185.856 49.8821 185.92 50.4951 185.92 51.2132ZM179.964 51.2132C179.964 51.8174 180.012 52.3323 180.108 52.7569C180.205 53.1815 180.356 53.5272 180.563 53.7945C180.771 54.0619 181.034 54.2545 181.356 54.3728C181.678 54.4911 182.068 54.5502 182.528 54.5502C182.979 54.5502 183.364 54.4887 183.686 54.3663C184.008 54.2436 184.27 54.0509 184.472 53.7882C184.674 53.5255 184.822 53.1815 184.914 52.7569C185.005 52.3323 185.052 51.8174 185.052 51.2132C185.052 50.6089 185.005 50.0966 184.914 49.6764C184.822 49.2559 184.674 48.9143 184.472 48.6513C184.27 48.3886 184.008 48.1981 183.686 48.0802C183.364 47.962 182.979 47.9026 182.528 47.9026C182.068 47.9026 181.678 47.962 181.356 48.0802C181.034 48.1981 180.771 48.3886 180.563 48.6513C180.356 48.9143 180.205 49.2559 180.108 49.6764C180.012 50.0966 179.964 50.6089 179.964 51.2132Z" fill="white"></path>
  <path d="M188.822 55.075V44.6178L189.648 44.5656V55.075H188.822Z" fill="white"></path>
  <path d="M199.377 51.2132C199.377 51.9401 199.313 52.5598 199.185 53.0719C199.056 53.5843 198.853 54.0003 198.578 54.3202C198.302 54.6399 197.951 54.8742 197.523 55.0232C197.095 55.1717 196.583 55.2462 195.985 55.2462C195.388 55.2462 194.875 55.1717 194.448 55.0232C194.02 54.8742 193.665 54.6399 193.38 54.3202C193.095 54.0003 192.886 53.5843 192.753 53.0719C192.619 52.5598 192.552 51.9401 192.552 51.2132C192.552 50.4951 192.621 49.8821 192.759 49.3742C192.896 48.8663 193.106 48.4502 193.386 48.126C193.667 47.8018 194.023 47.5656 194.455 47.4165C194.887 47.2678 195.398 47.1931 195.985 47.1931C196.583 47.1931 197.095 47.2678 197.523 47.4165C197.951 47.5656 198.302 47.8018 198.578 48.126C198.853 48.4502 199.056 48.8663 199.185 49.3742C199.313 49.8821 199.377 50.4951 199.377 51.2132ZM193.421 51.2132C193.421 51.8174 193.469 52.3323 193.566 52.7569C193.662 53.1815 193.814 53.5272 194.02 53.7945C194.228 54.0619 194.491 54.2545 194.813 54.3728C195.135 54.4911 195.526 54.5502 195.986 54.5502C196.436 54.5502 196.822 54.4887 197.144 54.3663C197.466 54.2436 197.728 54.0509 197.929 53.7882C198.132 53.5255 198.28 53.1815 198.371 52.7569C198.463 52.3323 198.509 51.8174 198.509 51.2132C198.509 50.6089 198.463 50.0966 198.371 49.6764C198.28 49.2559 198.132 48.9143 197.929 48.6513C197.728 48.3886 197.466 48.1981 197.144 48.0802C196.822 47.962 196.436 47.9026 195.986 47.9026C195.526 47.9026 195.135 47.962 194.813 48.0802C194.491 48.1981 194.228 48.3886 194.02 48.6513C193.814 48.9143 193.662 49.2559 193.566 49.6764C193.469 50.0966 193.421 50.6089 193.421 51.2132Z" fill="white"></path>
  <path d="M204.526 51.7001C204.333 51.7001 204.136 51.6891 203.934 51.6669C203.731 51.6452 203.538 51.6077 203.354 51.5554C202.794 51.6781 202.513 51.9143 202.513 52.2649C202.513 52.589 202.78 52.7901 203.313 52.869L205.312 53.0662C205.808 53.1186 206.225 53.1933 206.56 53.2894C206.896 53.3856 207.162 53.5083 207.36 53.6574C207.558 53.8061 207.698 53.9812 207.78 54.1826C207.863 54.3844 207.904 54.6119 207.904 54.8657C207.904 55.2074 207.849 55.5161 207.739 55.7923C207.629 56.0678 207.446 56.3021 207.188 56.4951C206.93 56.6875 206.591 56.8365 206.167 56.9415C205.744 57.0468 205.225 57.0994 204.609 57.0994C203.543 57.0994 202.771 56.913 202.293 56.5409C201.815 56.1689 201.576 55.6714 201.576 55.0499C201.576 54.7521 201.652 54.4652 201.803 54.1894C201.955 53.9133 202.178 53.6705 202.472 53.4602C202.26 53.3728 202.084 53.2432 201.942 53.0725C201.799 52.9019 201.727 52.6851 201.727 52.4222C201.727 52.1861 201.818 51.9671 201.997 51.7656C202.176 51.564 202.427 51.4155 202.747 51.3188L202.761 51.2927C202.468 51.1435 202.231 50.9226 202.052 50.6293C201.873 50.3358 201.782 49.948 201.782 49.4667C201.782 48.7394 201.994 48.179 202.417 47.7849C202.84 47.3911 203.543 47.1937 204.526 47.1937C204.876 47.1937 205.227 47.2334 205.581 47.3121C205.935 47.3911 206.245 47.531 206.512 47.7326L207.821 47.1674L208.015 47.5747L206.966 48.2448C207.059 48.4024 207.13 48.5796 207.18 48.777C207.231 48.974 207.257 49.1993 207.257 49.4532C207.257 49.8211 207.21 50.1428 207.119 50.4191C207.026 50.6947 206.873 50.9289 206.657 51.1218C206.441 51.3144 206.158 51.459 205.808 51.5554C205.459 51.6515 205.032 51.7001 204.526 51.7001ZM203.203 53.6046C202.909 53.7801 202.688 53.9899 202.541 54.2351C202.394 54.4806 202.32 54.7216 202.32 54.9576C202.32 55.422 202.497 55.7832 202.852 56.0415C203.205 56.3002 203.781 56.4291 204.581 56.4291C205.087 56.4291 205.503 56.394 205.829 56.3243C206.156 56.2541 206.415 56.1553 206.608 56.0284C206.801 55.9015 206.935 55.7484 207.008 55.5685C207.082 55.389 207.119 55.1901 207.119 54.9712C207.119 54.8046 207.091 54.6555 207.036 54.5242C206.98 54.3929 206.882 54.279 206.739 54.1826C206.596 54.0866 206.402 54.0075 206.154 53.9464C205.905 53.8848 205.584 53.8371 205.188 53.8016L203.203 53.6046ZM204.526 47.864C203.819 47.864 203.32 47.9974 203.031 48.2646C202.74 48.5316 202.596 48.9366 202.596 49.4795C202.596 49.8039 202.644 50.0685 202.74 50.2744C202.838 50.4802 202.973 50.6424 203.148 50.7607C203.322 50.879 203.525 50.9596 203.755 51.0035C203.984 51.0471 204.237 51.0694 204.513 51.0694C205.257 51.0694 205.767 50.9358 206.043 50.6687C206.319 50.4014 206.457 50.005 206.457 49.4795C206.457 48.884 206.303 48.466 205.995 48.2251C205.687 47.9841 205.197 47.864 204.526 47.864Z" fill="white"></path>
  <path d="M210.628 55.0763V47.3648L211.469 47.2991V55.0763H210.628ZM211.703 45.184C211.703 45.5519 211.488 45.736 211.055 45.736C210.844 45.736 210.683 45.6965 210.573 45.6177C210.463 45.5389 210.408 45.3943 210.408 45.184C210.408 44.8164 210.623 44.6326 211.055 44.6326C211.488 44.6326 211.703 44.8164 211.703 45.184Z" fill="white"></path>
  <path d="M218.08 55.2346C217.428 55.2346 216.874 55.1513 216.419 54.9846C215.965 54.8183 215.59 54.5601 215.296 54.2098C215.001 53.8591 214.787 53.4147 214.654 52.8763C214.521 52.3376 214.454 51.6915 214.454 50.9384C214.454 49.7126 214.723 48.7817 215.261 48.1466C215.798 47.5119 216.61 47.1943 217.694 47.1943C218.154 47.1943 218.575 47.2621 218.956 47.398C219.338 47.5339 219.666 47.7461 219.942 48.0354C220.217 48.3242 220.432 48.6942 220.583 49.1454C220.735 49.5961 220.811 50.1369 220.811 50.7675C220.811 50.8291 220.809 50.8968 220.804 50.9715C220.799 51.046 220.792 51.1095 220.783 51.1619H215.309C215.318 51.7835 215.38 52.3068 215.495 52.7317C215.611 53.1563 215.785 53.4979 216.019 53.7562C216.253 54.015 216.547 54.2007 216.901 54.3147C217.256 54.4287 217.677 54.4854 218.164 54.4854C218.596 54.4854 218.99 54.4373 219.349 54.3411C219.708 54.2448 220.062 54.1088 220.41 53.9335L220.521 54.6303C220.172 54.8226 219.797 54.9718 219.398 55.0766C218.997 55.1818 218.559 55.2346 218.08 55.2346ZM220.038 50.5968C220.029 50.1067 219.965 49.6906 219.845 49.349C219.726 49.0074 219.563 48.7293 219.356 48.515C219.149 48.3001 218.906 48.1448 218.625 48.0482C218.345 47.9521 218.035 47.9038 217.694 47.9038C216.886 47.9038 216.295 48.1271 215.922 48.574C215.55 49.0202 215.341 49.6947 215.296 50.5968H220.038Z" fill="white"></path>
  <path d="M228.126 52.8947C228.126 53.5952 227.908 54.1603 227.472 54.5896C227.035 55.0188 226.343 55.2334 225.397 55.2334C224.909 55.2334 224.449 55.1717 224.017 55.0493C223.585 54.9268 223.218 54.7515 222.914 54.5236L223.052 53.801C223.346 54.0378 223.705 54.2196 224.127 54.3463C224.55 54.4732 224.969 54.5366 225.383 54.5366C226.071 54.5366 226.57 54.3881 226.878 54.0904C227.186 53.7926 227.34 53.4202 227.34 52.9736C227.34 52.6317 227.233 52.3605 227.016 52.1589C226.801 51.9578 226.529 51.7888 226.202 51.6535C225.877 51.5178 225.524 51.3949 225.148 51.2853C224.771 51.1761 224.419 51.0401 224.094 50.8784C223.766 50.7162 223.496 50.5081 223.28 50.254C223.064 50.0002 222.956 49.6586 222.956 49.2293C222.956 48.5988 223.186 48.1018 223.645 47.7384C224.105 47.3751 224.776 47.1931 225.658 47.1931C226.448 47.1931 227.161 47.3422 227.795 47.6399L227.713 48.3361C227.032 48.047 226.343 47.9026 225.644 47.9026C225.065 47.9026 224.605 48.0186 224.265 48.2509C223.926 48.4828 223.755 48.796 223.755 49.1899C223.755 49.5141 223.864 49.7657 224.08 49.9455C224.296 50.125 224.564 50.2762 224.886 50.3986C225.208 50.5213 225.56 50.6351 225.941 50.7402C226.322 50.8453 226.674 50.9813 226.995 51.1475C227.317 51.3138 227.586 51.5326 227.802 51.8045C228.018 52.0757 228.126 52.4394 228.126 52.8947Z" fill="white"></path>
  <path d="M36.356 43.4931C32.5823 44.0103 31.6423 38.2808 34.8323 37.6159C38.3088 37.6159 40.8933 36.6175 42.3716 35.1064C43.9586 33.4846 44.8134 31.597 44.8478 29.4919C44.8478 27.4681 44.0147 25.6318 42.4049 23.9998C40.9153 22.4334 38.9293 21.6933 36.5664 21.6933C34.2884 21.6933 32.609 22.6069 30.9652 24.1569C29.989 25.0867 28.5843 26.8982 26.7523 29.6066C24.7827 32.9842 22.8315 35.2529 21.4614 36.6891C19.1834 38.9573 16.3749 40.0832 13.0013 40.0832C9.6446 40.0832 6.8019 38.9573 4.49038 36.7051C2.16091 34.4701 0.996094 31.761 0.996094 28.6118C0.996094 25.43 2.0924 22.7865 4.30116 20.6982C6.33925 18.7562 9.68738 17.6276 12.4942 17.3142C15.6637 16.5313 17.2705 21.9159 14.885 23.0316C11.888 23.4067 9.8841 24.0591 8.92527 24.9897C7.88072 25.9686 7.36674 27.192 7.36674 28.6118C7.36674 30.1127 7.91482 31.3856 9.02818 32.4302C10.1242 33.4908 11.4605 34.0132 13.0357 34.0132C14.6111 34.0132 15.9465 33.4908 17.0434 32.4302C17.4539 32.0547 18.5326 30.5537 20.3139 27.9428C22.352 24.2881 24.3383 21.5303 26.2738 19.7024C29.2189 16.978 32.6442 15.6233 36.5664 15.6233C40.6075 15.6233 44.0328 16.978 46.8413 19.6701C49.7186 22.4275 51.1567 25.691 51.1567 29.4764C51.1567 33.3441 49.7138 36.6525 46.8413 39.398C44.0282 42.0857 40.3972 43.493 36.356 43.493V43.4931Z" fill="white"></path>
  <path fill-rule="evenodd" clip-rule="evenodd" d="M36.7656 25.4244C38.4067 25.4244 39.8334 26.2982 40.5615 27.5842C43.2687 30.4295 49.2052 28.7498 54.1176 25.0331V25.0346C55.3656 23.8018 57.1172 23.0345 59.0568 23.0345C62.847 23.0345 65.9187 25.9616 65.9187 29.5727C65.9187 33.1834 62.847 36.1107 59.0568 36.1107C57.1167 36.1107 55.3651 35.3434 54.1168 34.1098C50.837 31.2739 43.3178 28.9617 40.5643 31.4722C39.8372 32.7609 38.4092 33.6375 36.7656 33.6375C34.3857 33.6375 32.4557 31.7986 32.4557 29.5309C32.4557 27.2628 34.3857 25.4244 36.7656 25.4244ZM58.8254 27.033C60.2973 27.033 61.491 28.1704 61.491 29.5725C61.491 30.9748 60.2973 32.1122 58.8254 32.1122C57.354 32.1122 56.1603 30.9748 56.1603 29.5725C56.1603 28.1704 57.354 27.033 58.8254 27.033Z" fill="#08AFF7"></path>
  <path fill-rule="evenodd" clip-rule="evenodd" d="M59.161 15.5757C67.2737 15.5757 73.8524 21.8438 73.8524 29.5739C73.8524 37.3038 67.2737 43.5721 59.161 43.5721C55.5612 43.5721 52.2642 42.3367 49.7097 40.2883C51.2734 38.7809 52.46 37.1243 53.2671 35.3204C54.7877 36.7364 56.867 37.6101 59.161 37.6101C63.8186 37.6101 67.5953 34.0115 67.5953 29.5739C67.5953 25.136 63.8186 21.5375 59.161 21.5375C57.0015 21.5375 55.0323 22.3111 53.5401 23.5833C52.815 21.7452 51.6996 20.0468 50.195 18.4856C52.6759 16.661 55.785 15.5757 59.161 15.5757Z" fill="white"></path>
  <path fill-rule="evenodd" clip-rule="evenodd" d="M98.5591 13.8319V4.66231L98.563 4.63081C98.7818 2.86591 104.122 2.28968 104.756 4.5557L104.775 4.62355V13.8319L109.095 13.8319L109.135 13.8372C111.339 14.1387 111.786 19.1619 109.183 19.7405L109.12 19.7545H104.775V43.5804H98.5591V19.7545H94.2639L94.2217 19.7486C91.6797 19.381 92.0749 13.9885 94.2647 13.8332L94.2855 13.8318H98.5591V13.8319Z" fill="white"></path>
  <path fill-rule="evenodd" clip-rule="evenodd" d="M173.658 17.8947C176.156 16.3486 178.939 15.5607 181.983 15.5607C186.026 15.5607 189.532 16.7518 192.381 19.4935C195.245 22.25 196.694 25.602 196.694 29.4813C196.694 33.3566 195.258 36.7068 192.387 39.4554C189.531 42.1906 186.033 43.5807 181.983 43.5807C178.938 43.5807 176.157 42.7784 173.658 41.234V43.5058H167.522V4.73489C167.355 2.59615 173.554 2.28986 173.657 4.68557L173.658 4.69769V17.8947ZM181.523 37.7224C181.677 37.7296 181.834 37.7334 181.991 37.7334C184.367 37.7334 186.349 36.9261 188.033 35.3355C189.751 33.7122 190.557 31.7718 190.557 29.4729C190.557 27.1912 189.706 25.2852 188.024 23.6678C186.348 22.0572 184.377 21.2377 181.991 21.2377C179.826 21.2377 178.005 21.9302 176.439 23.2648C174.534 24.7624 173.321 27.0288 173.321 29.5655C173.321 33.9579 176.96 37.5394 181.523 37.7224Z" fill="#08AFF7"></path>
  <path fill-rule="evenodd" clip-rule="evenodd" d="M77.5134 13.7382V11.0202C77.5134 8.76476 78.463 6.77709 80.147 5.20817C81.8002 3.66847 83.8555 2.90039 86.1619 2.90039C87.5019 2.90039 88.9657 3.31457 90.2239 3.73545L91.1266 4.03746L91.1948 4.08549C94.6254 6.50543 91.2463 10.4022 89.0255 9.72869L88.9939 9.71885L88.0751 9.32146C87.6257 9.12706 86.8607 8.82291 86.3669 8.82291C85.6391 8.82291 85.0192 9.12834 84.4901 9.58769C83.9683 10.0403 83.7298 10.6161 83.7298 11.2845V13.7382H88.0512L88.092 13.744C90.7455 14.1171 90.7788 19.1151 88.1262 19.6491L88.0685 19.6608H83.7297V43.547H77.5134V19.6608H75.6533L75.6329 19.6595C73.2243 19.492 73.0102 14.1143 75.5898 13.7443L75.6316 13.7382H77.5134Z" fill="white"></path>
  <path d="M233.204 20.3906C235.785 20.3906 237.878 18.3969 237.878 15.9375C237.878 13.4781 235.785 11.4844 233.204 11.4844C230.623 11.4844 228.53 13.4781 228.53 15.9375C228.53 18.3969 230.623 20.3906 233.204 20.3906Z" stroke="white" stroke-width="0.323077"></path>
  <path d="M233.6 16.3932H232.45V18.2806H231.801V13.615H233.422C233.973 13.615 234.397 13.7346 234.694 13.9739C234.992 14.2132 235.14 14.5614 235.14 15.0185C235.14 15.3091 235.058 15.5622 234.891 15.778C234.728 15.9937 234.5 16.155 234.206 16.2618L235.356 18.2421V18.2806H234.663L233.6 16.3932ZM232.45 15.8901H233.442C233.763 15.8901 234.018 15.8111 234.206 15.653C234.396 15.4949 234.492 15.2835 234.492 15.0185C234.492 14.7301 234.4 14.5091 234.219 14.3552C234.039 14.2014 233.779 14.1235 233.439 14.1213H232.45V15.8901Z" fill="white"></path>
</svg>

